<svg width="31" height="30" viewBox="0 0 31 30" fill="none" xmlns="http://www.w3.org/2000/svg">
    <g clip-path="url(#clip0_70_73)">
    <g clip-path="url(#clip1_70_73)">
    <g clip-path="url(#clip2_70_73)">
    <path d="M15.2774 7.78989H14.4815V7.12811H13.8194V6.33268H14.4815V5.66846H15.2774V6.33268H15.9396V7.12811H15.2774V7.78989Z" fill="black"/>
    <path d="M5.40267 2.27338H24.3234C26.1775 2.27338 27.6855 3.78178 27.6855 5.63631V24.5542C27.6855 26.4087 26.1771 27.9175 24.3234 27.9175H5.40267C3.54855 27.9175 2.04055 26.4091 2.04055 24.5542V5.63631C2.04055 3.78219 3.54855 2.27338 5.40267 2.27338ZM14.874 5.22478C13.7389 5.22478 11.8799 5.70213 10.8432 6.83475L12.2386 9.51275C12.5492 9.10944 12.9484 8.78292 13.4053 8.55842C13.8622 8.33393 14.3645 8.21747 14.8736 8.21803C15.3768 8.21744 15.8735 8.33133 16.3262 8.55106C16.7789 8.7708 17.1757 9.09062 17.4866 9.48634L18.9093 6.89447C17.7112 5.69685 16.0582 5.22478 14.874 5.22478ZM12.3166 11.442C12.3172 12.1209 12.5873 12.7718 13.0677 13.2515C13.548 13.7312 14.1992 14.0005 14.878 14.0002C15.5565 14.0002 16.2072 13.7307 16.6869 13.2509C17.1667 12.7712 17.4362 12.1205 17.4362 11.442C17.4362 10.7636 17.1667 10.1129 16.6869 9.63314C16.2072 9.1534 15.5565 8.88388 14.878 8.88388C14.1992 8.88355 13.548 9.15286 13.0677 9.63259C12.5873 10.1123 12.3172 10.7632 12.3166 11.442ZM19.8599 16.9455C19.6275 16.1334 18.6009 14.6933 16.8252 14.6847L12.8342 14.6884C11.0983 14.731 10.0924 16.1432 9.86289 16.9459L8.3943 21.8055H10.5462L11.4834 18.5981H12.1391L11.2076 21.8055H18.5201L17.5845 18.5981H18.2398L19.175 21.8055H21.3573L19.8599 16.9455ZM5.30517 24.6492H24.4473V22.828H5.30558V24.6492H5.30517Z" fill="black"/>
    </g>
    </g>
    </g>
    <defs>
    <clipPath id="clip0_70_73">
    <rect width="30" height="30" fill="white" transform="translate(0.200073)"/>
    </clipPath>
    <clipPath id="clip1_70_73">
    <rect width="32" height="32" fill="white" transform="translate(-0.799927 -1)"/>
    </clipPath>
    <clipPath id="clip2_70_73">
    <rect width="26" height="26" fill="white" transform="matrix(-1 0 0 1 27.8 2)"/>
    </clipPath>
    </defs>
    </svg>
    