<svg width="31" height="30" viewBox="0 0 31 30" fill="none" xmlns="http://www.w3.org/2000/svg">
    <g clip-path="url(#clip0_70_89)">
    <g clip-path="url(#clip1_70_89)">
    <g clip-path="url(#clip2_70_89)">
    <path d="M31.6154 24.4577H-1.21552C-1.53778 24.4577 -1.80005 24.72 -1.80005 25.0422V26.4885C-1.80005 26.8108 -1.53778 27.0731 -1.21552 27.0731H31.6154C31.9377 27.0731 32.2 26.8108 32.2 26.4885V25.0422C32.2 24.72 31.9377 24.4577 31.6154 24.4577Z" fill="black"/>
    <path d="M30.5357 3.75902C30.5357 3.29939 30.1632 2.92688 29.7035 2.92688H0.696491C0.236861 2.92688 -0.135651 3.29939 -0.135651 3.75902V5.34203H30.5357V3.75902ZM15.8308 4.81852C15.6645 4.98497 15.435 5.0801 15.1996 5.0801C14.9653 5.0801 14.7347 4.98497 14.5695 4.81852C14.4031 4.65332 14.3079 4.42265 14.3079 4.18843C14.3079 3.95295 14.4031 3.72353 14.5695 3.55834C14.7347 3.39189 14.9653 3.29676 15.1996 3.29676C15.435 3.29676 15.6645 3.39189 15.8308 3.55834C15.9961 3.72353 16.0913 3.95295 16.0913 4.18843C16.0912 4.42265 15.9961 4.65332 15.8308 4.81852Z" fill="black"/>
    <path d="M17.7277 18.1123L15.5787 19.2646C15.3424 19.3914 15.0577 19.3914 14.8214 19.2646L12.6724 18.1123L12.1148 18.2833C11.4316 18.5149 10.9733 19.1538 10.9733 19.8756V23.15H19.4268V19.8756C19.4268 19.1537 18.9686 18.5149 18.2854 18.2833L17.7277 18.1123Z" fill="black"/>
    <path d="M15.2 14.3518C16.1443 14.3518 16.9127 13.5834 16.9127 12.6391C16.9127 11.6948 16.1443 10.9264 15.2 10.9264C14.2556 10.9264 13.4872 11.6948 13.4872 12.6391C13.4872 13.5834 14.2556 14.3518 15.2 14.3518Z" fill="black"/>
    <path d="M9.37049 19.8756C9.37049 18.4599 10.2729 17.2078 11.616 16.7601C11.6222 16.758 11.6282 16.7561 11.6344 16.7541L12.5215 16.482C12.7256 16.4193 12.9468 16.4409 13.1351 16.5419L15.1998 17.649L17.2646 16.5419C17.453 16.4408 17.674 16.4193 17.8782 16.482L18.7653 16.7541C18.7714 16.7561 18.7775 16.758 18.7837 16.7601C20.1267 17.2078 21.0292 18.4599 21.0292 19.8756V23.15H30.5251V6.64972H-0.135773V23.15H9.37049V19.8756ZM15.1999 9.3237C17.028 9.3237 18.5153 10.811 18.5153 12.6391C18.5153 14.4672 17.028 15.9545 15.1999 15.9545C13.3718 15.9545 11.8845 14.4672 11.8845 12.6391C11.8845 10.811 13.3718 9.3237 15.1999 9.3237Z" fill="black"/>
    </g>
    </g>
    </g>
    <defs>
    <clipPath id="clip0_70_89">
    <rect width="30" height="30" fill="white" transform="translate(0.400024)"/>
    </clipPath>
    <clipPath id="clip1_70_89">
    <rect width="32" height="32" fill="white" transform="translate(-0.599976 -1)"/>
    </clipPath>
    <clipPath id="clip2_70_89">
    <rect width="34" height="34" fill="white" transform="translate(-1.80005 -2)"/>
    </clipPath>
    </defs>
    </svg>
    