<svg width="31" height="30" viewBox="0 0 31 30" fill="none" xmlns="http://www.w3.org/2000/svg">
    <path d="M24.1241 8.42437L20.5885 12.146L20.5978 12.1786L23.2827 22.5816C23.3287 22.8089 23.3231 23.0444 23.2664 23.269C23.2097 23.4936 23.1035 23.7009 22.9564 23.8742L22.0702 24.8071C22.0129 24.8775 21.9396 24.9316 21.8572 24.9644C21.7748 24.9972 21.6858 25.0075 21.5986 24.9946C21.5113 24.9816 21.4286 24.9457 21.358 24.8901C21.2875 24.8346 21.2313 24.7612 21.1948 24.6768L17.5633 17.7578L16.4111 16.5433L13.3642 19.7505C13.015 20.0785 12.6247 20.3546 12.2042 20.571L12.8848 22.9267C12.9364 23.1513 12.9354 23.3857 12.8817 23.6098C12.8281 23.8339 12.7235 24.0408 12.577 24.2129L12.3063 24.4994C12.1681 24.6437 11.9813 24.7247 11.7867 24.7247C11.592 24.7247 11.4052 24.6437 11.267 24.4994L9.6585 22.8079L9.63066 22.7753L8.41192 21.4957L8.38099 21.4631L6.77559 19.7716C6.63845 19.6262 6.5615 19.4296 6.5615 19.2246C6.5615 19.0197 6.63845 18.8231 6.77559 18.6776L7.04779 18.3911C7.21151 18.2374 7.40826 18.1279 7.62111 18.072C7.83396 18.0161 8.05653 18.0156 8.26963 18.0704L10.5076 18.7834C10.7134 18.341 10.9756 17.9302 11.2871 17.5624L14.334 14.3552L13.1802 13.144L6.60701 9.32141C6.52682 9.28297 6.45713 9.22387 6.40437 9.14959C6.35161 9.0753 6.31749 8.98822 6.30516 8.89638C6.29283 8.80455 6.30269 8.71092 6.33382 8.62415C6.36495 8.53739 6.41635 8.46028 6.48327 8.39995L7.36949 7.4671C7.53419 7.31238 7.73119 7.20065 7.94453 7.14097C8.15788 7.0813 8.38158 7.07534 8.59751 7.12359L18.4805 9.94982L18.5114 9.95959L22.047 6.23795C22.6192 5.63232 24.5541 4.57737 25.1294 5.17974C25.7017 5.78536 24.6979 7.82038 24.1241 8.42437Z" fill="black"/>
    </svg>
    