<svg width="31" height="30" viewBox="0 0 31 30" fill="none" xmlns="http://www.w3.org/2000/svg">
    <g clip-path="url(#clip0_70_59)">
    <g clip-path="url(#clip1_70_59)">
    <path d="M20.9333 7L24.9333 12.3333H27.6C29.08 12.3333 30.2667 13.52 30.2667 15V19H27.6C27.6 21.2133 25.8133 23 23.6 23C21.3867 23 19.6 21.2133 19.6 19H11.6C11.6 21.2133 9.81333 23 7.6 23C5.38667 23 3.6 21.2133 3.6 19H0.933334V15C0.933334 13.52 2.12 12.3333 3.6 12.3333L7.6 7H20.9333ZM13.6 9H8.6L6.08 12.3333H13.6V9ZM15.6 9V12.3333H22.4533L19.9333 9H15.6ZM7.6 17C6.49333 17 5.6 17.8933 5.6 19C5.6 20.1067 6.49333 21 7.6 21C8.70667 21 9.6 20.1067 9.6 19C9.6 17.8933 8.70667 17 7.6 17ZM23.6 17C22.4933 17 21.6 17.8933 21.6 19C21.6 20.1067 22.4933 21 23.6 21C24.7067 21 25.6 20.1067 25.6 19C25.6 17.8933 24.7067 17 23.6 17Z" fill="black"/>
    </g>
    </g>
    <defs>
    <clipPath id="clip0_70_59">
    <rect width="30" height="30" fill="white" transform="translate(0.600006)"/>
    </clipPath>
    <clipPath id="clip1_70_59">
    <rect width="32" height="32" fill="white" transform="translate(-0.399994 -1)"/>
    </clipPath>
    </defs>
    </svg>
    