<svg width="30" height="30" viewBox="0 0 30 30" fill="none" xmlns="http://www.w3.org/2000/svg">
    <path d="M9.95273 5.41977C9.92983 5.33753 9.90272 5.23145 9.87025 5.10131C9.83777 4.97069 9.81651 4.87723 9.80646 4.82092C9.79735 4.87326 9.77889 4.95948 9.75202 5.07958C9.72468 5.19967 9.6644 5.43613 9.57094 5.78941H10.0499L9.95273 5.41977Z" fill="#68F19F"/>
    <path d="M19.8033 4.91907H19.6832V5.4338H19.797C20.0094 5.4338 20.1157 5.33988 20.1157 5.15179C20.1159 4.99687 20.0115 4.91907 19.8033 4.91907Z" fill="#68F19F"/>
    <path d="M15.6125 5.39057C15.6662 5.33917 15.6936 5.26837 15.6936 5.17818C15.6936 5.0263 15.6092 4.95013 15.441 4.95013H15.2837V5.46767H15.3947C15.4858 5.46767 15.5587 5.44221 15.6125 5.39057Z" fill="#68F19F"/>
    <path d="M17.6296 4.92236C17.3247 4.92236 17.1728 5.14223 17.1728 5.58173C17.1728 6.01679 17.3238 6.23456 17.6268 6.23456C17.7808 6.23456 17.8946 6.18152 17.9696 6.07591C18.0439 5.97006 18.0815 5.80534 18.0815 5.58173C18.0815 5.35672 18.0439 5.1906 17.9684 5.08335C17.8929 4.9761 17.7798 4.92236 17.6296 4.92236Z" fill="#68F19F"/>
    <path d="M7.73209 4.95013H7.57484V5.46767H7.68583C7.77719 5.46767 7.84985 5.44221 7.90383 5.39057C7.95757 5.33917 7.98467 5.26837 7.98467 5.17818C7.98444 5.02607 7.90009 4.95013 7.73209 4.95013Z" fill="#68F19F"/>
    <path d="M23.78 0.5C23.7469 0.5 23.713 0.501636 23.6902 0.503972L6.27828 1.68789C5.71953 1.7421 5.282 2.22108 5.282 2.77788V2.88793C5.26293 2.94774 5.25 3.01083 5.25 3.07789V28.9107C5.25 29.2364 5.4977 29.5 5.80305 29.5H22.6748C22.9804 29.5 23.2279 29.236 23.2279 28.9107V28.1633L23.7537 28.1226C24.3125 28.0689 24.75 27.5897 24.75 27.0329V1.47503C24.7504 0.928285 24.3245 0.5 23.78 0.5ZM7.43106 6.71025H6.86026V4.45877H7.5913C7.85829 4.45877 8.05842 4.52092 8.19235 4.64523C8.32628 4.7693 8.39292 4.94594 8.39292 5.17492C8.39292 5.42656 8.32365 5.62073 8.18446 5.75788C8.04505 5.89503 7.84755 5.96349 7.5913 5.96349H7.43106V6.71025ZM11.8173 9.34117C12.0709 9.23626 12.1952 9.3851 12.1034 9.65824C11.8307 10.4697 11.6205 11.4279 11.4747 12.4558C11.4341 12.742 11.1886 13.0039 10.9197 13.0471C9.95605 13.2023 9.0571 13.4266 8.29537 13.7175C8.03957 13.8149 7.89972 13.6829 7.99792 13.4126C8.67679 11.549 10.0694 10.0648 11.8173 9.34117ZM8.45123 6.71025L9.14062 4.44943H9.90213L10.6001 6.71025H9.97578L9.87166 6.28827H9.18533L9.07858 6.71025H8.45123ZM11.5643 5.99831C11.5483 5.97518 11.5231 5.95204 11.4874 5.92821C11.4523 5.90438 11.3587 5.85625 11.2066 5.78358C11.0689 5.71676 10.9657 5.65204 10.8969 5.58942C10.828 5.5268 10.777 5.45507 10.7439 5.37375C10.7105 5.29244 10.6937 5.19665 10.6937 5.0859C10.6937 4.87841 10.7645 4.71672 10.9061 4.60083C11.0477 4.48494 11.2423 4.42676 11.4898 4.42676C11.7086 4.42676 11.9315 4.4805 12.1588 4.58845L11.9841 5.05809C11.7866 4.96183 11.6161 4.91346 11.4725 4.91346C11.3984 4.91346 11.3445 4.92748 11.3107 4.95505C11.277 4.98285 11.2603 5.0172 11.2603 5.05809C11.2603 5.10225 11.2818 5.14174 11.3245 5.17679C11.3675 5.2116 11.4839 5.27539 11.6737 5.36791C11.8557 5.45507 11.9821 5.54853 12.0527 5.64876C12.1235 5.74877 12.1588 5.87494 12.1588 6.02681C12.1588 6.16654 12.1257 6.29061 12.0591 6.39879C11.9927 6.5072 11.8969 6.59108 11.7717 6.65137C11.6463 6.71142 11.4995 6.74132 11.3309 6.74132C11.1899 6.74132 11.0722 6.73081 10.9767 6.70978C10.8815 6.68875 10.7822 6.65207 10.6794 6.5995V6.05742C10.7884 6.11724 10.9015 6.16373 11.019 6.19715C11.1365 6.23056 11.2443 6.24715 11.3427 6.24715C11.4276 6.24715 11.4896 6.23149 11.5293 6.20018C11.5687 6.16887 11.5884 6.12869 11.5884 6.07915C11.5882 6.04831 11.5801 6.02121 11.5643 5.99831ZM13.2217 5.99831C13.2059 5.97518 13.1805 5.95204 13.1452 5.92821C13.1099 5.90438 13.0163 5.85625 12.8642 5.78358C12.7263 5.71676 12.6231 5.65204 12.5543 5.58942C12.4856 5.52656 12.4343 5.45507 12.4012 5.37375C12.3681 5.29244 12.3511 5.19665 12.3511 5.0859C12.3511 4.87841 12.4221 4.71672 12.5639 4.60083C12.7055 4.48494 12.8997 4.42676 13.1474 4.42676C13.366 4.42676 13.5891 4.4805 13.8162 4.58845L13.6415 5.05809C13.4442 4.96183 13.2737 4.91346 13.1303 4.91346C13.0558 4.91346 13.0019 4.92748 12.9685 4.95505C12.9348 4.98285 12.9177 5.0172 12.9177 5.05809C12.9177 5.10225 12.9394 5.14174 12.9821 5.17679C13.0249 5.21183 13.1415 5.27539 13.3311 5.36791C13.513 5.45507 13.6395 5.54853 13.7101 5.64876C13.7809 5.74877 13.8162 5.87494 13.8162 6.02681C13.8162 6.16654 13.7831 6.29061 13.7167 6.39879C13.65 6.5072 13.5543 6.59108 13.4291 6.65137C13.3039 6.71142 13.1573 6.74132 12.9883 6.74132C12.8478 6.74132 12.7298 6.73081 12.6345 6.70978C12.5391 6.68875 12.44 6.65207 12.337 6.5995V6.05742C12.4457 6.11724 12.5591 6.16373 12.6766 6.19715C12.7938 6.23056 12.9017 6.24715 13.0001 6.24715C13.0852 6.24715 13.1472 6.23149 13.1867 6.20018C13.2261 6.16887 13.2461 6.12869 13.2461 6.07915C13.2458 6.04831 13.2377 6.02121 13.2217 5.99831ZM12.9942 9.41524C13.1027 9.15005 13.4269 8.90588 13.6976 8.88251C13.8765 8.86733 14.0573 8.85938 14.2399 8.85938C14.4219 8.85938 14.6029 8.86709 14.7816 8.88251C15.0527 8.90611 15.3769 9.14981 15.4852 9.41524C15.7919 10.1669 16.0593 11.1758 16.2434 12.3695C16.287 12.6555 16.097 12.867 15.8261 12.8469C15.3 12.8083 14.7682 12.7885 14.2401 12.7885C13.7121 12.7885 13.1799 12.8083 12.6536 12.8469C12.3824 12.867 12.1923 12.6555 12.2366 12.3695C12.4201 11.1756 12.6869 10.1667 12.9942 9.41524ZM14.0924 6.71025V4.45877H14.8237C15.0904 4.45877 15.2906 4.52092 15.4245 4.64523C15.5584 4.7693 15.6253 4.94594 15.6253 5.17492C15.6253 5.42656 15.556 5.62073 15.4168 5.75788C15.2774 5.89503 15.0797 5.96349 14.8237 5.96349H14.6632V6.71025H14.0924ZM20.0299 6.71025H19.3826L18.9348 5.89106H18.7906V6.71025H18.2197V4.45877H18.9118C19.4859 4.45877 19.7728 4.68028 19.7728 5.12398C19.7728 5.38497 19.6536 5.58661 19.4146 5.72961L20.0299 6.71025ZM20.4804 13.4126C20.5792 13.6824 20.4392 13.8151 20.1834 13.7175C19.4216 13.4268 18.5229 13.2025 17.5589 13.0474C17.2899 13.0039 17.0446 12.742 17.0041 12.456C16.8583 11.4284 16.6481 10.4699 16.3749 9.65847C16.2838 9.38557 16.4076 9.23626 16.6612 9.34141C18.4094 10.0648 19.8015 11.549 20.4804 13.4126ZM17.627 6.44575C17.4525 6.64296 17.1972 6.74132 16.8614 6.74132C16.5299 6.74132 16.2756 6.64225 16.099 6.44435C15.9223 6.24598 15.834 5.95765 15.834 5.5789C15.834 5.20412 15.9214 4.9179 16.0974 4.72023C16.2735 4.52233 16.529 4.42372 16.8638 4.42372C17.1998 4.42372 17.4545 4.52186 17.6279 4.71789C17.8013 4.91393 17.8883 5.20179 17.8883 5.58194C17.8883 5.96069 17.8013 6.24855 17.627 6.44575ZM12.5648 13.6415C13.0998 13.5986 13.6595 13.5754 14.2393 13.5754C14.8195 13.5754 15.3789 13.5988 15.914 13.6415C16.1849 13.6633 16.4265 13.9203 16.4466 14.2089C16.4874 14.7797 16.5087 15.3757 16.5087 15.994C16.5087 16.6124 16.4872 17.2083 16.4466 17.7791C16.4265 18.0676 16.1853 18.3251 15.914 18.3471C15.3793 18.3901 14.8193 18.413 14.2393 18.413C13.6593 18.413 13.0998 18.3894 12.5648 18.3471C12.2938 18.3253 12.0527 18.0683 12.0321 17.7791C11.9918 17.209 11.9701 16.6122 11.9701 15.994C11.9701 15.3757 11.992 14.7794 12.0321 14.2089C12.0525 13.9203 12.2936 13.663 12.5648 13.6415ZM16.2428 19.6184C16.0586 20.8121 15.7916 21.8208 15.4845 22.5724C15.3763 22.8381 15.0518 23.0823 14.7809 23.1054C14.6025 23.1204 14.4214 23.1288 14.2393 23.1288C14.0567 23.1288 13.876 23.1211 13.6972 23.1054C13.4262 23.082 13.102 22.8383 12.9935 22.5724C12.6869 21.8208 12.4197 20.8123 12.2355 19.6184C12.1915 19.3326 12.3817 19.1209 12.6527 19.141C13.1792 19.1796 13.7108 19.1997 14.2386 19.1997C14.7669 19.1997 15.2991 19.1796 15.8252 19.141C16.0963 19.1209 16.2868 19.3328 16.2428 19.6184ZM7.56762 16.5713C7.55359 16.3811 7.54592 16.1879 7.54592 15.9935C7.54592 15.7996 7.55338 15.6066 7.56762 15.4161C7.58954 15.1269 7.81839 14.7811 8.06762 14.6656C8.77258 14.3385 9.71931 14.0539 10.839 13.8577C11.1073 13.8109 11.3057 14.0135 11.2868 14.3023C11.2509 14.8633 11.232 15.4306 11.232 15.9928C11.232 16.5554 11.2509 17.1227 11.2868 17.6835C11.3057 17.9725 11.1073 18.1753 10.839 18.1284C9.71909 17.9321 8.77258 17.6477 8.06762 17.3206C7.81839 17.2057 7.58932 16.8603 7.56762 16.5713ZM8.29537 18.2704C9.0571 18.5611 9.95583 18.7852 10.9199 18.9408C11.1891 18.9838 11.4343 19.2457 11.4747 19.5322C11.6202 20.5598 11.8307 21.518 12.1034 22.3297C12.195 22.6026 12.0711 22.7514 11.8173 22.6465C10.0692 21.9229 8.67679 20.439 7.9977 18.5751C7.8995 18.305 8.03957 18.1728 8.29537 18.2704ZM19.3256 27.6822L9.15246 27.6841V26.2812H19.3256V27.6822ZM20.4808 18.5751C19.802 20.439 18.4098 21.9229 16.661 22.6467C16.4076 22.7517 16.2833 22.6026 16.3749 22.3297C16.6476 21.5182 16.8578 20.5595 17.0036 19.5324C17.0446 19.2455 17.2899 18.9835 17.5586 18.9408C18.5225 18.7856 19.4214 18.5616 20.1831 18.2709C20.4392 18.1732 20.5792 18.305 20.4808 18.5751ZM20.9109 16.5718C20.8888 16.8601 20.6601 17.2066 20.4109 17.3223C19.7057 17.6492 18.7592 17.934 17.6395 18.1302C17.371 18.1772 17.1728 17.9746 17.1917 17.6854C17.2276 17.1246 17.2465 16.5568 17.2465 15.9947C17.2465 15.4318 17.2276 14.8645 17.1917 14.3037C17.1728 14.0147 17.371 13.8119 17.6395 13.8588C18.7588 14.0551 19.7057 14.3395 20.4109 14.6668C20.6599 14.7825 20.8892 15.128 20.9109 15.4168C20.9247 15.607 20.9326 15.8003 20.9326 15.9947C20.9326 16.1891 20.9256 16.3811 20.9109 16.5718ZM21.618 4.95645H21.1036V6.71048H20.5328V4.95645H20.0168V4.45901H21.6178V4.95645H21.618ZM23.9208 27.0324C23.9208 27.1186 23.8151 27.2287 23.6866 27.2415L23.2281 27.2766V3.07789C23.2281 2.75194 22.9804 2.48838 22.6753 2.48838H7.54307L23.7425 1.38718L23.7798 1.38461C23.8482 1.38461 23.9208 1.41638 23.9208 1.47527V27.0324Z" fill="black"/>
    </svg>
    